<?xml version="1.0" standalone="no"?>
<!DOCTYPE svg PUBLIC "-//W3C//DTD SVG 20010904//EN"
 "http://www.w3.org/TR/2001/REC-SVG-20010904/DTD/svg10.dtd">
<svg version="1.0" xmlns="http://www.w3.org/2000/svg"
 width="1280.000000pt" height="640.000000pt" viewBox="0 0 1280.000000 640.000000"
 preserveAspectRatio="xMidYMid meet">
<metadata>
Created by potrace 1.15, written by Peter Selinger 2001-2017
</metadata>
<g transform="translate(0.000000,640.000000) scale(0.100000,-0.100000)"
fill="#000000" stroke="none">
<path d="M7045 5791 c-91 -41 -132 -136 -122 -286 4 -49 20 -189 36 -310 40
-291 51 -407 54 -545 l2 -115 -120 3 c-524 13 -1482 86 -3110 237 -1797 166
-2234 204 -2725 236 -215 14 -565 17 -642 6 -83 -12 -145 -56 -182 -130 -26
-52 -29 -66 -28 -155 2 -110 14 -170 120 -582 109 -426 143 -644 143 -920 0
-364 -63 -629 -292 -1242 -156 -417 -172 -470 -173 -584 -1 -84 1 -94 29 -140
22 -36 44 -56 83 -76 77 -39 165 -44 442 -24 443 32 806 73 2550 291 2071 259
2672 328 3353 385 265 22 337 24 337 11 0 -5 -13 -61 -29 -123 -35 -135 -77
-256 -178 -518 -107 -277 -123 -326 -130 -405 -7 -88 16 -141 79 -182 39 -26
49 -28 147 -28 128 0 220 22 556 132 1303 427 4179 1685 5153 2254 362 212
449 322 378 474 -58 126 -276 266 -871 560 -1384 683 -3773 1616 -4531 1770
-153 31 -271 33 -329 6z"/>
</g>
</svg>
